<?xml version="1.0" encoding="UTF-8" standalone="no"?> <svg xmlns="http://www.w3.org/2000/svg" xmlns:xlink="http://www.w3.org/1999/xlink" viewBox="0 0 32 32"><defs><style>.cls-1{fill:#f07167;}.cls-2{fill:url(#linear-gradient);}.cls-3{fill:url(#linear-gradient-2);}.cls-4{fill:url(#linear-gradient-3);}</style><linearGradient id="linear-gradient" x1="10" y1="12" x2="22" y2="12" gradientUnits="userSpaceOnUse"><stop offset="0" stop-color="#00afb9"/><stop offset="1" stop-color="#0081a7"/></linearGradient><linearGradient id="linear-gradient-2" x1="4" y1="4" x2="28" y2="4" xlink:href="#linear-gradient"/><linearGradient id="linear-gradient-3" x1="4" y1="19" x2="28" y2="19" xlink:href="#linear-gradient"/></defs><g id="Presentation"><path class="cls-1" d="M8.86,29a2.43,2.43,0,0,1-1.93-.94A2.46,2.46,0,0,1,6.48,26L8,19.76A1,1,0,0,1,9.24,19,1,1,0,0,1,10,20.24L8.42,26.43a.47.47,0,0,0,.08.39.46.46,0,0,0,.36.18.47.47,0,0,0,.45-.34L11,19.76a1,1,0,0,1,1.94.48l-1.72,6.9A2.46,2.46,0,0,1,8.86,29Z"/><path class="cls-1" d="M23.14,29a2.46,2.46,0,0,1-2.39-1.86L19,20.24A1,1,0,1,1,21,19.76l1.72,6.9a.47.47,0,0,0,.45.34.46.46,0,0,0,.36-.18.47.47,0,0,0,.08-.39L22,20.24A1,1,0,1,1,24,19.76L25.52,26a2.46,2.46,0,0,1-.45,2.11A2.43,2.43,0,0,1,23.14,29Z"/><path class="cls-1" d="M16,29a2.5,2.5,0,0,1-2.5-2.5V19a1,1,0,0,1,2,0v7.5a.5.5,0,0,0,1,0V19a1,1,0,0,1,2,0v7.5A2.5,2.5,0,0,1,16,29Z"/><path class="cls-1" d="M26,20H6a1,1,0,0,1-1-1V4A1,1,0,0,1,6,3H26a1,1,0,0,1,1,1V19A1,1,0,0,1,26,20ZM7,18H25V5H7Z"/><path class="cls-2" d="M17,15a1,1,0,0,1-.71-.29L14,12.41l-2.29,2.3a1,1,0,0,1-1.42-1.42l3-3a1,1,0,0,1,1.42,0L17,12.59l3.29-3.3a1,1,0,0,1,1.42,1.42l-4,4A1,1,0,0,1,17,15Z"/><path class="cls-3" d="M27,5H5A1,1,0,0,1,5,3H27a1,1,0,0,1,0,2Z"/><path class="cls-4" d="M27,20H5a1,1,0,0,1,0-2H27a1,1,0,0,1,0,2Z"/></g></svg>