<?xml version="1.0" encoding="UTF-8" standalone="no"?> <svg xmlns="http://www.w3.org/2000/svg" xmlns:xlink="http://www.w3.org/1999/xlink" viewBox="0 0 32 32"><defs><style>.cls-1{fill:#f07167;}.cls-2{fill:url(#linear-gradient);}.cls-3{fill:url(#linear-gradient-2);}</style><linearGradient id="linear-gradient" x1="6" y1="16" x2="26" y2="16" gradientUnits="userSpaceOnUse"><stop offset="0" stop-color="#00afb9"/><stop offset="1" stop-color="#0081a7"/></linearGradient><linearGradient id="linear-gradient-2" x1="12.5" x2="19.5" xlink:href="#linear-gradient"/></defs><g id="Coin"><path class="cls-1" d="M16,29A13,13,0,1,1,29,16,13,13,0,0,1,16,29ZM16,5A11,11,0,1,0,27,16,11,11,0,0,0,16,5Z"/><path class="cls-2" d="M16,26A10,10,0,1,1,26,16,10,10,0,0,1,16,26ZM16,8a8,8,0,1,0,8,8A8,8,0,0,0,16,8Z"/><path class="cls-3" d="M17,15.16V12.39a1.5,1.5,0,0,1,.5,1.11,1,1,0,0,0,2,0A3.5,3.5,0,0,0,17,10.16V10a1,1,0,0,0-2,0v.16a3.48,3.48,0,0,0,0,6.68v2.77a1.5,1.5,0,0,1-.5-1.11,1,1,0,0,0-2,0A3.5,3.5,0,0,0,15,21.84V22a1,1,0,0,0,2,0v-.16a3.48,3.48,0,0,0,0-6.68ZM14.5,13.5a1.5,1.5,0,0,1,.5-1.11v2.22A1.5,1.5,0,0,1,14.5,13.5ZM17,19.61V17.39a1.48,1.48,0,0,1,0,2.22Z"/></g></svg>