<?xml version="1.0" encoding="UTF-8" standalone="no"?> <svg xmlns="http://www.w3.org/2000/svg" xmlns:xlink="http://www.w3.org/1999/xlink" viewBox="0 0 32 32"><defs><style>.cls-1{fill:url(#linear-gradient);}.cls-2{fill:url(#linear-gradient-2);}.cls-3{fill:#f07167;}.cls-4{fill:url(#linear-gradient-3);}.cls-5{fill:url(#linear-gradient-4);}</style><linearGradient id="linear-gradient" x1="11" y1="23" x2="15" y2="23" gradientUnits="userSpaceOnUse"><stop offset="0" stop-color="#00afb9"/><stop offset="1" stop-color="#0081a7"/></linearGradient><linearGradient id="linear-gradient-2" x1="17" x2="21" xlink:href="#linear-gradient"/><linearGradient id="linear-gradient-3" x1="6" y1="12" x2="26" y2="12" xlink:href="#linear-gradient"/><linearGradient id="linear-gradient-4" x1="12" y1="12" x2="20" y2="12" xlink:href="#linear-gradient"/></defs><g id="PC"><path class="cls-1" d="M14,19a1,1,0,0,0-1,1v1.17a5.79,5.79,0,0,1-1.71,4.12,1,1,0,0,0,0,1.42,1,1,0,0,0,1.42,0A7.78,7.78,0,0,0,15,21.17V20A1,1,0,0,0,14,19Z"/><path class="cls-2" d="M20.71,25.29A5.83,5.83,0,0,1,19,21.17V20a1,1,0,0,0-2,0v1.17a7.93,7.93,0,0,0,2.29,5.54,1,1,0,0,0,1.42,0A1,1,0,0,0,20.71,25.29Z"/><path class="cls-3" d="M27,21H5a2,2,0,0,1-2-2V5A2,2,0,0,1,5,3H27a2,2,0,0,1,2,2V19A2,2,0,0,1,27,21ZM5,5V19H27V5Z"/><path class="cls-4" d="M24,18H8a2,2,0,0,1-2-2V8A2,2,0,0,1,8,6H24a2,2,0,0,1,2,2v8A2,2,0,0,1,24,18ZM8,8v8H24V8Z"/><path class="cls-3" d="M21.61,30H10.39a2,2,0,0,1-1.9-2.63l.33-1A2,2,0,0,1,10.72,25H21.28a2,2,0,0,1,1.9,1.37l.33,1A2,2,0,0,1,21.61,30Zm.62-3.32-.95.32H10.72l-.33,1H21.61l-.33-1Z"/><path class="cls-5" d="M13,14a1,1,0,0,1-.71-.29,1,1,0,0,1,0-1.42L13.59,11a2,2,0,0,1,2.82,0l.59.59,1.29-1.3a1,1,0,0,1,1.42,1.42L18.41,13a2,2,0,0,1-2.82,0L15,12.41l-1.29,1.3A1,1,0,0,1,13,14Z"/></g></svg>