<?xml version="1.0" encoding="UTF-8" standalone="no"?> <svg xmlns="http://www.w3.org/2000/svg" xmlns:xlink="http://www.w3.org/1999/xlink" viewBox="0 0 32 32"><defs><style>.cls-1{fill:url(#linear-gradient);}.cls-2{fill:url(#linear-gradient-2);}.cls-3{fill:url(#linear-gradient-3);}.cls-4{fill:url(#linear-gradient-4);}.cls-5{fill:url(#linear-gradient-5);}.cls-6{fill:url(#linear-gradient-6);}.cls-7{fill:#f07167;}</style><linearGradient id="linear-gradient" x1="15" y1="5" x2="17" y2="5" gradientUnits="userSpaceOnUse"><stop offset="0" stop-color="#00afb9"/><stop offset="1" stop-color="#0081a7"/></linearGradient><linearGradient id="linear-gradient-2" x1="3" y1="16" x2="7" y2="16" xlink:href="#linear-gradient"/><linearGradient id="linear-gradient-3" x1="25" y1="16" x2="29" y2="16" xlink:href="#linear-gradient"/><linearGradient id="linear-gradient-4" x1="5.29" y1="8" x2="8.71" y2="8" xlink:href="#linear-gradient"/><linearGradient id="linear-gradient-5" x1="23.29" y1="8" x2="26.71" y2="8" xlink:href="#linear-gradient"/><linearGradient id="linear-gradient-6" x1="13" y1="19.5" x2="19" y2="19.5" xlink:href="#linear-gradient"/></defs><g id="Idea"><path class="cls-1" d="M16,7a1,1,0,0,1-1-1V4a1,1,0,0,1,2,0V6A1,1,0,0,1,16,7Z"/><path class="cls-2" d="M6,17H4a1,1,0,0,1,0-2H6a1,1,0,0,1,0,2Z"/><path class="cls-3" d="M28,17H26a1,1,0,0,1,0-2h2a1,1,0,0,1,0,2Z"/><path class="cls-4" d="M7.71,9.71A1,1,0,0,1,7,9.41L5.59,8A1,1,0,0,1,7,6.59L8.41,8a1,1,0,0,1,0,1.41A1,1,0,0,1,7.71,9.71Z"/><path class="cls-5" d="M24.29,9.71a1,1,0,0,1-.7-.3,1,1,0,0,1,0-1.41L25,6.59A1,1,0,0,1,26.41,8L25,9.41A1,1,0,0,1,24.29,9.71Z"/><path class="cls-6" d="M18.55,15.17a1,1,0,0,0-1.38.28L16,17.2l-1.17-1.75a1,1,0,1,0-1.66,1.1L15,19.3V23a1,1,0,0,0,2,0V19.3l1.83-2.75A1,1,0,0,0,18.55,15.17Z"/><path class="cls-7" d="M16,24a8,8,0,1,1,8-8A8,8,0,0,1,16,24Zm0-14a6,6,0,1,0,6,6A6,6,0,0,0,16,10Z"/><path class="cls-7" d="M16,26.66a18.14,18.14,0,0,1-3.59-.36A3,3,0,0,1,10,23.36V21a1,1,0,0,1,2,0v2.36a1,1,0,0,0,.8,1,16,16,0,0,0,6.4,0,1,1,0,0,0,.8-1V21a1,1,0,0,1,2,0v2.36a3,3,0,0,1-2.41,2.94A18.14,18.14,0,0,1,16,26.66Z"/><path class="cls-7" d="M16,29.6a8.41,8.41,0,0,1-2.63-.42A2,2,0,0,1,12,27.28V26a1,1,0,0,1,2,0v1.28a6.36,6.36,0,0,0,4,0V26a1,1,0,0,1,2,0v1.28a2,2,0,0,1-1.37,1.9A8.41,8.41,0,0,1,16,29.6Z"/></g></svg>